<!DOCTYPE svg PUBLIC "-//W3C//DTD SVG 1.1//EN" "http://www.w3.org/Graphics/SVG/1.1/DTD/svg11.dtd">
<!-- Uploaded to: SVG Repo, www.svgrepo.com, Transformed by: SVG Repo Mixer Tools -->
<svg width="800px" height="800px" viewBox="-4.8 -4.8 33.60 33.60" fill="none" xmlns="http://www.w3.org/2000/svg">
<g id="SVGRepo_bgCarrier" stroke-width="0"/>
<g id="SVGRepo_tracerCarrier" stroke-linecap="round" stroke-linejoin="round" stroke="#CCCCCC" stroke-width="0.144"/>
<g id="SVGRepo_iconCarrier"> <path d="M15 7.49996L17.5 9.99996M7.5 20L19.25 8.24996C19.9404 7.5596 19.9404 6.44032 19.25 5.74996V5.74996C18.5596 5.0596 17.4404 5.05961 16.75 5.74996L5 17.5V20H7.5ZM7.5 20H15.8787C17.0503 20 18 19.0502 18 17.8786V17.8786C18 17.316 17.7765 16.7765 17.3787 16.3786L17 16M4.5 4.99996C6.5 2.99996 10 3.99996 10 5.99996C10 8.5 4 8.5 4 11C4 11.8759 4.53314 12.5256 5.22583 13" stroke="#4682A9" stroke-width="2" stroke-linecap="round" stroke-linejoin="round"/> </g>
</svg>